<svg width="25" height="24" viewBox="0 0 25 24" fill="none" xmlns="http://www.w3.org/2000/svg">
<path d="M19.2505 8.9625L20.155 8.058C20.2767 7.93778 20.4308 7.85549 20.5984 7.82114C20.766 7.78679 20.94 7.80185 21.0992 7.8645L22.2017 8.304C22.3627 8.36959 22.5007 8.48137 22.5983 8.62525C22.6958 8.76913 22.7486 8.93867 22.75 9.1125V11.1315C22.748 11.3637 22.6539 11.5856 22.4884 11.7485C22.3229 11.9113 22.0995 12.0018 21.8672 12L21.8297 11.9985C14.1077 11.5185 12.55 4.977 12.2552 2.4735C12.2425 2.35915 12.2525 2.24341 12.2845 2.1329C12.3165 2.02239 12.37 1.91927 12.4418 1.82942C12.5137 1.73958 12.6026 1.66477 12.7034 1.60928C12.8042 1.55379 12.9149 1.51869 13.0292 1.506C13.0631 1.50199 13.0972 1.49998 13.1312 1.5H15.0812C15.2552 1.50063 15.4249 1.55323 15.5687 1.65106C15.7125 1.74888 15.8238 1.88746 15.8882 2.049L16.3285 3.1515C16.3932 3.31023 16.4098 3.48452 16.376 3.65259C16.3423 3.82066 16.2597 3.97506 16.1387 4.0965L15.2342 5.001C15.2342 5.001 15.7547 8.526 19.2505 8.9625Z" fill="#FFAC6A"/>
<path d="M12.25 22.5H10.75V18.75C10.7494 18.1534 10.5122 17.5815 10.0903 17.1597C9.6685 16.7378 9.09655 16.5006 8.5 16.5H5.5C4.90345 16.5006 4.3315 16.7378 3.90967 17.1597C3.48784 17.5815 3.2506 18.1534 3.25 18.75V22.5H1.75V18.75C1.75119 17.7558 2.14666 16.8027 2.84966 16.0997C3.55267 15.3967 4.5058 15.0012 5.5 15H8.5C9.4942 15.0012 10.4473 15.3967 11.1503 16.0997C11.8533 16.8027 12.2488 17.7558 12.25 18.75V22.5Z" fill="#FFAC6A"/>
<path d="M7 7.5C7.44501 7.5 7.88002 7.63196 8.25004 7.87919C8.62005 8.12643 8.90843 8.47783 9.07873 8.88896C9.24903 9.3001 9.29359 9.7525 9.20677 10.189C9.11995 10.6254 8.90566 11.0263 8.59099 11.341C8.27632 11.6557 7.87541 11.87 7.43896 11.9568C7.0025 12.0436 6.5501 11.999 6.13896 11.8287C5.72783 11.6584 5.37643 11.37 5.1292 11C4.88196 10.63 4.75 10.195 4.75 9.75C4.75 9.15326 4.98705 8.58097 5.40901 8.15901C5.83097 7.73705 6.40326 7.5 7 7.5ZM7 6C6.25832 6 5.5333 6.21993 4.91661 6.63199C4.29993 7.04404 3.81928 7.62971 3.53545 8.31494C3.25162 9.00016 3.17736 9.75416 3.32206 10.4816C3.46675 11.209 3.8239 11.8772 4.34835 12.4017C4.8728 12.9261 5.54098 13.2833 6.26841 13.4279C6.99584 13.5726 7.74984 13.4984 8.43506 13.2145C9.12029 12.9307 9.70596 12.4501 10.118 11.8334C10.5301 11.2167 10.75 10.4917 10.75 9.75C10.75 9.25754 10.653 8.76991 10.4646 8.31494C10.2761 7.85997 9.99987 7.44657 9.65165 7.09835C9.30343 6.75013 8.89004 6.47391 8.43506 6.28545C7.98009 6.097 7.49246 6 7 6Z" fill="#FFAC6A"/>
</svg>
