<svg width="25" height="24" viewBox="0 0 25 24" fill="none" xmlns="http://www.w3.org/2000/svg">
<g clip-path="url(#clip0_78713_5536)">
<path d="M17.031 10.7194C17.1008 10.789 17.1563 10.8718 17.1941 10.9629C17.2319 11.054 17.2513 11.1517 17.2513 11.2504C17.2513 11.349 17.2319 11.4467 17.1941 11.5378C17.1563 11.6289 17.1008 11.7117 17.031 11.7814L12.531 16.2814C12.4613 16.3512 12.3786 16.4066 12.2875 16.4444C12.1963 16.4822 12.0987 16.5017 12 16.5017C11.9014 16.5017 11.8037 16.4822 11.7126 16.4444C11.6214 16.4066 11.5387 16.3512 11.469 16.2814L9.219 14.0314C9.14927 13.9616 9.09396 13.8788 9.05622 13.7877C9.01848 13.6966 8.99905 13.599 8.99905 13.5004C8.99905 13.4017 9.01848 13.3041 9.05622 13.213C9.09396 13.1219 9.14927 13.0391 9.219 12.9694C9.35983 12.8285 9.55084 12.7494 9.75 12.7494C9.84862 12.7494 9.94627 12.7688 10.0374 12.8066C10.1285 12.8443 10.2113 12.8996 10.281 12.9694L12 14.6899L15.969 10.7194C16.0387 10.6495 16.1214 10.5941 16.2126 10.5563C16.3037 10.5185 16.4014 10.499 16.5 10.499C16.5987 10.499 16.6963 10.5185 16.7875 10.5563C16.8786 10.5941 16.9613 10.6495 17.031 10.7194Z" fill="#35C75A"/>
<path d="M6 0C6.19891 0 6.38968 0.0790176 6.53033 0.21967C6.67098 0.360322 6.75 0.551088 6.75 0.75V1.5H18.75V0.75C18.75 0.551088 18.829 0.360322 18.9697 0.21967C19.1103 0.0790176 19.3011 0 19.5 0C19.6989 0 19.8897 0.0790176 20.0303 0.21967C20.171 0.360322 20.25 0.551088 20.25 0.75V1.5H21.75C22.5456 1.5 23.3087 1.81607 23.8713 2.37868C24.4339 2.94129 24.75 3.70435 24.75 4.5V21C24.75 21.7956 24.4339 22.5587 23.8713 23.1213C23.3087 23.6839 22.5456 24 21.75 24H3.75C2.95435 24 2.19129 23.6839 1.62868 23.1213C1.06607 22.5587 0.75 21.7956 0.75 21V4.5C0.75 3.70435 1.06607 2.94129 1.62868 2.37868C2.19129 1.81607 2.95435 1.5 3.75 1.5H5.25V0.75C5.25 0.551088 5.32902 0.360322 5.46967 0.21967C5.61032 0.0790176 5.80109 0 6 0V0ZM2.25 6V21C2.25 21.3978 2.40804 21.7794 2.68934 22.0607C2.97064 22.342 3.35218 22.5 3.75 22.5H21.75C22.1478 22.5 22.5294 22.342 22.8107 22.0607C23.092 21.7794 23.25 21.3978 23.25 21V6H2.25Z" fill="#35C75A"/>
</g>
<defs>
<clipPath id="clip0_78713_5536">
<rect width="24" height="24" fill="white" transform="translate(0.75)"/>
</clipPath>
</defs>
</svg>
