<svg width="20" height="20" viewBox="0 0 20 20" fill="none" xmlns="http://www.w3.org/2000/svg">
<path d="M18.3333 9.08268V3.41602C18.3333 2.16602 17.8 1.66602 16.475 1.66602H13.1083C11.7833 1.66602 11.25 2.16602 11.25 3.41602V9.08268C11.25 10.3327 11.7833 10.8327 13.1083 10.8327H16.475C17.8 10.8327 18.3333 10.3327 18.3333 9.08268Z" stroke="#A9A9B0" stroke-width="1.5" stroke-linecap="round" stroke-linejoin="round"/>
<path d="M18.3333 16.584V15.084C18.3333 13.834 17.8 13.334 16.475 13.334H13.1083C11.7833 13.334 11.25 13.834 11.25 15.084V16.584C11.25 17.834 11.7833 18.334 13.1083 18.334H16.475C17.8 18.334 18.3333 17.834 18.3333 16.584Z" stroke="#A9A9B0" stroke-width="1.5" stroke-linecap="round" stroke-linejoin="round"/>
<path d="M8.74996 10.916V16.5827C8.74996 17.8327 8.21663 18.3327 6.89163 18.3327H3.52496C2.19996 18.3327 1.66663 17.8327 1.66663 16.5827V10.916C1.66663 9.66602 2.19996 9.16602 3.52496 9.16602H6.89163C8.21663 9.16602 8.74996 9.66602 8.74996 10.916Z" stroke="#A9A9B0" stroke-width="1.5" stroke-linecap="round" stroke-linejoin="round"/>
<path d="M8.74996 3.41602V4.91602C8.74996 6.16602 8.21663 6.66602 6.89163 6.66602H3.52496C2.19996 6.66602 1.66663 6.16602 1.66663 4.91602V3.41602C1.66663 2.16602 2.19996 1.66602 3.52496 1.66602H6.89163C8.21663 1.66602 8.74996 2.16602 8.74996 3.41602Z" stroke="#A9A9B0" stroke-width="1.5" stroke-linecap="round" stroke-linejoin="round"/>
</svg>
