<svg width="6" height="7" viewBox="0 0 6 7" fill="none" xmlns="http://www.w3.org/2000/svg">
<path fill-rule="evenodd" clip-rule="evenodd" d="M2.80101 0.521485C2.70155 0.521485 2.60617 0.560994 2.53584 0.63132C2.46552 0.701646 2.42601 0.797028 2.42601 0.896485L2.42601 5.24124L0.81651 3.63098C0.781644 3.59612 0.740252 3.56846 0.694697 3.54959C0.649143 3.53072 0.600317 3.52101 0.551009 3.52101C0.501702 3.52101 0.452876 3.53072 0.407322 3.54959C0.361767 3.56846 0.320375 3.59612 0.285509 3.63098C0.250644 3.66585 0.222986 3.70724 0.204117 3.7528C0.185248 3.79835 0.175536 3.84718 0.175536 3.89648C0.175536 3.94579 0.185248 3.99462 0.204117 4.04017C0.222987 4.08573 0.250644 4.12712 0.285509 4.16198L2.53551 6.41198C2.57034 6.44691 2.61173 6.47461 2.65728 6.49352C2.70284 6.51242 2.75168 6.52216 2.80101 6.52216C2.85034 6.52216 2.89918 6.51242 2.94474 6.49352C2.99029 6.47461 3.03168 6.44691 3.06651 6.41198L5.31651 4.16198C5.35138 4.12712 5.37903 4.08573 5.3979 4.04017C5.41677 3.99462 5.42648 3.94579 5.42648 3.89648C5.42648 3.84718 5.41677 3.79835 5.3979 3.7528C5.37903 3.70724 5.35138 3.66585 5.31651 3.63098C5.24609 3.56057 5.15059 3.52101 5.05101 3.52101C5.0017 3.52101 4.95288 3.53072 4.90732 3.54959C4.86177 3.56846 4.82038 3.59612 4.78551 3.63098L3.17601 5.24123L3.17601 0.896485C3.17601 0.797028 3.1365 0.701646 3.06617 0.63132C2.99585 0.560993 2.90047 0.521485 2.80101 0.521485Z" fill="#E73F3F"/>
</svg>
