<svg width="28" height="28" viewBox="0 0 28 28" fill="none" xmlns="http://www.w3.org/2000/svg">
<path fill-rule="evenodd" clip-rule="evenodd" d="M19.443 2.34507C21.1213 2.24017 22.7762 2.8229 24.0233 3.96506C25.1655 5.2121 25.7482 6.86705 25.655 8.55697V19.4424C25.7599 21.1323 25.1655 22.7873 24.035 24.0343C22.7879 25.1764 21.1213 25.7592 19.443 25.6543H8.55751C6.86758 25.7592 5.21261 25.1764 3.96556 24.0343C2.8234 22.7873 2.24066 21.1323 2.34555 19.4424V8.55697C2.24066 6.86705 2.8234 5.2121 3.96556 3.96506C5.21261 2.8229 6.86758 2.24017 8.55751 2.34507H19.443ZM12.8115 19.6522L20.6551 11.7853C21.366 11.0627 21.366 9.89725 20.6551 9.18632L19.14 7.67122C18.4174 6.94864 17.2519 6.94864 16.5293 7.67122L15.7485 8.46374C15.6319 8.58028 15.6319 8.77841 15.7485 8.89496C15.7485 8.89496 17.6016 10.7364 17.6365 10.783C17.7647 10.9229 17.8463 11.1093 17.8463 11.3191C17.8463 11.7387 17.5083 12.0883 17.0771 12.0883C16.879 12.0883 16.6925 12.0067 16.5643 11.8785L14.618 9.94387C14.5247 9.85063 14.3616 9.85063 14.2683 9.94387L8.70902 15.5031C8.32442 15.8877 8.10298 16.4005 8.09132 16.9483L8.02139 19.7104C8.02139 19.8619 8.06801 20.0018 8.17291 20.1067C8.2778 20.2116 8.41765 20.2699 8.56917 20.2699H11.308C11.8674 20.2699 12.4036 20.0484 12.8115 19.6522Z" fill="#FF9138"/>
</svg>
