<svg width="170" height="136" viewBox="0 0 170 136" fill="none" xmlns="http://www.w3.org/2000/svg">
<g clip-path="url(#clip0_31_2475)">
<path d="M76.94 132.56L80.2076 111.272C80.3383 110.532 80.6868 109.879 81.2968 109.313C81.9939 108.66 82.8216 108.355 83.693 108.355C84.5643 108.355 85.305 108.617 85.9585 109.183C86.612 109.749 87.0477 110.358 87.2219 111.098L91.448 126.204L95.7176 111.098C95.9354 110.358 96.3711 109.749 96.981 109.226C97.6781 108.66 98.4623 108.355 99.2901 108.355C100.205 108.355 100.989 108.66 101.643 109.226C102.296 109.792 102.645 110.489 102.775 111.229L106.13 132.517V133.213C106.13 134.04 105.869 134.693 105.39 135.216C104.91 135.738 104.3 135.956 103.56 135.956C102.688 135.956 102.035 135.738 101.643 135.346C101.251 134.911 100.946 134.258 100.771 133.3L98.7237 117.759L94.367 133.779C94.1927 134.432 93.9313 134.911 93.5828 135.216C93.1035 135.738 92.4065 135.956 91.5351 135.956C90.6638 135.956 90.0102 135.695 89.4874 135.216C89.0953 134.824 88.8339 134.345 88.7032 133.779L84.4336 117.759L82.2117 133.3C82.081 134.215 81.8196 134.911 81.4275 135.303C80.9918 135.738 80.3383 135.956 79.4669 135.956C78.7263 135.956 78.1163 135.695 77.6371 135.216C77.1579 134.737 76.8965 134.04 76.8965 133.213C76.8529 132.909 76.8965 132.691 76.94 132.56Z" fill="black"/>
<path d="M118.46 124.42C117.327 125.073 116.412 125.378 115.192 125.378C114.016 125.378 113.275 125.16 112.578 124.638C111.925 124.159 111.533 123.419 111.445 122.81C111.445 122.723 111.489 122.592 111.576 122.548C113.798 122.461 117.676 122.287 118.59 122.026C118.678 121.939 118.852 121.286 118.852 121.155C118.634 121.112 118.373 120.938 118.329 120.807C118.111 119.457 117.066 117.281 113.929 117.281C112.796 117.281 111.576 117.629 110.661 118.108C109.18 118.935 108.091 120.459 108.091 122.505C108.091 123.854 108.57 125.422 109.79 126.423C110.618 127.119 111.75 127.555 113.449 127.555C115.061 127.555 117.24 126.858 118.416 125.552C118.46 125.422 118.634 124.856 118.59 124.594C118.59 124.551 118.503 124.464 118.46 124.42ZM113.145 118.5C114.277 118.5 114.974 119.545 115.149 120.938C115.105 121.025 115.061 121.112 114.931 121.155C114.452 121.242 112.404 121.242 111.576 121.242C111.445 121.242 111.358 121.112 111.358 121.068C111.445 119.675 112.099 118.5 113.145 118.5ZM134.275 125.683C133.578 125.683 133.186 125.683 132.881 125.639C132.576 125.596 132.401 125.422 132.401 124.899V121.025C132.401 117.455 132.445 115.67 132.488 114.277C132.532 113.102 132.488 112.71 132.793 112.318C132.837 112.231 132.706 111.839 132.576 111.752C131.53 112.1 128.567 112.448 126.912 112.448C126.738 112.536 126.694 113.319 126.781 113.45C127.435 113.537 128.045 113.58 128.48 113.711C128.959 113.885 129.047 114.19 129.09 114.582C129.134 115.191 129.134 115.888 129.134 117.237C129.134 117.324 129.047 117.368 129.003 117.368C128.742 117.324 128.393 117.324 128.132 117.324C126.345 117.324 124.036 118.021 122.947 118.804C121.684 119.632 120.812 121.068 120.812 122.766C120.812 124.072 121.292 125.378 122.076 126.205C122.816 126.989 123.949 127.511 125.213 127.511C126.084 127.511 127.609 126.945 128.916 126.205C128.959 126.162 129.047 126.249 129.047 126.292C129.09 126.684 129.09 127.207 129.134 127.424C129.177 127.511 129.308 127.685 129.395 127.685C130.092 127.685 133.011 127.163 134.057 126.771C134.144 126.684 134.318 125.813 134.275 125.683ZM126.65 118.63C127.26 118.63 127.957 118.761 128.48 119.109C129.003 119.457 129.09 119.806 129.09 120.285C129.09 121.634 129.09 124.029 129.047 124.638C129.047 124.899 129.003 125.073 128.872 125.16C128.48 125.422 127.914 125.552 127.522 125.552C125.561 125.552 124.211 124.159 124.211 121.678C124.211 120.415 124.646 119.588 125.169 119.109C125.648 118.761 126.171 118.63 126.65 118.63ZM141.855 126.336C141.202 126.249 140.941 126.162 140.679 126.118C140.331 126.031 140.156 125.77 140.156 125.16C140.113 124.072 140.113 122.679 140.113 121.416V117.324C138.762 117.76 136.061 118.108 135.364 118.108C135.233 118.239 135.102 118.848 135.233 119.022C136.148 119.283 136.41 119.457 136.627 119.675C136.758 119.762 136.802 120.023 136.802 120.198V122.331C136.802 123.506 136.802 124.725 136.758 125.291C136.714 125.813 136.714 125.988 136.366 126.118C136.061 126.205 135.756 126.249 135.19 126.336C135.015 126.466 135.102 127.25 135.19 127.381C135.8 127.381 136.889 127.294 138.326 127.294C140.374 127.294 141.333 127.381 141.725 127.381C141.899 127.25 142.03 126.466 141.855 126.336ZM140.069 114.32C140.069 114.103 140.026 113.624 139.808 113.406C139.677 113.276 139.241 113.145 138.588 113.145C137.847 113.145 136.932 113.363 136.54 113.755C136.322 113.972 136.322 114.669 136.366 114.843C136.584 115.496 136.889 115.757 137.324 115.931C137.586 116.062 139.111 116.018 139.329 115.801C139.764 115.452 140.069 114.799 140.069 114.32ZM159.805 125.726C159.108 125.726 158.89 125.291 158.89 124.507C158.934 123.637 159.413 121.416 159.892 119.414C160.067 118.63 160.284 118.151 160.502 117.629C159.805 117.498 158.934 117.281 157.365 117.281C155.274 117.281 152.486 118.674 151.484 119.675C150.09 120.938 148.957 123.071 148.957 125.073C148.957 126.162 149.305 127.642 150.656 127.642C151.876 127.642 154.141 126.379 155.71 124.594C155.753 124.507 155.841 124.551 155.841 124.638C155.71 125.335 155.71 125.726 155.666 126.075C155.623 126.815 155.928 127.685 157.148 127.685C160.807 127.685 165.6 125.335 165.6 120.023C165.6 116.845 162.768 112.884 156.886 112.884C153.227 112.884 149.959 114.146 147.389 116.454C145.167 118.413 143.772 121.068 143.772 124.159C143.772 130.384 149.305 132.561 150.961 132.561C151.789 132.561 153.096 132.387 153.749 131.865C153.793 131.778 153.793 131.429 153.749 131.386C153.009 131.473 151.832 131.299 151.179 131.168C148.783 130.646 146.299 128.382 146.299 123.985C146.299 116.932 152.094 114.364 155.666 114.364C159.762 114.364 163.596 116.279 163.596 121.155C163.552 124.116 161.461 125.726 159.805 125.726ZM153.096 125.03C152.617 125.03 152.181 124.594 152.224 123.463C152.224 122.374 152.573 121.242 153.009 120.459C153.793 119.196 154.621 118.892 155.623 118.892C156.146 118.892 156.799 118.979 157.235 119.196C157.104 119.457 156.886 120.11 156.755 120.546C156.363 121.939 156.189 122.374 155.884 122.81C154.795 124.377 153.793 125.03 153.096 125.03Z" fill="black"/>
<path fill-rule="evenodd" clip-rule="evenodd" d="M170 0C161.896 24.8143 151.353 50.5429 133.926 69.872C114.539 89.5928 84.1722 90.6376 63.2599 91.5954C42.3475 92.5531 25.3562 92.379 14.2901 97.9078C3.22399 103.437 1.78626 112.927 1.78626 112.927L2.87545 107.05L10.5433 96.0794L49.9718 82.758L106.958 74.7478L144.252 51.7183L158.716 25.5544L167.429 5.70295L170 0Z" fill="black"/>
<path fill-rule="evenodd" clip-rule="evenodd" d="M153.052 34.5215C153.096 34.5215 148.086 43.8377 138.37 49.8454C131.704 53.9812 123.078 56.3755 113.798 56.7673C101.338 57.2897 90.8816 56.6367 82.9523 58.3781C75.5894 59.9888 69.0979 62.5138 66.7452 73.1361C66.7452 73.1361 66.0046 62.5573 78.9441 56.1578C91.8836 49.7148 124.385 52.3269 135.103 47.1463C139.546 45.0132 143.685 43.0977 147.345 40.0938C149.48 38.3089 151.353 36.8723 153.052 34.5215Z" fill="black"/>
<path fill-rule="evenodd" clip-rule="evenodd" d="M95.674 44.8837C93.8006 42.3152 89.836 36.7864 71.7119 42.7941C57.8575 47.3651 46.2686 51.7185 35.7253 49.4983C29.103 48.1052 24.3106 43.6212 19.6489 38.876C12.6781 31.6929 7.66786 24.3792 8.0164 24.2051L11.6761 28.7761L22.4808 38.7019L40.692 46.7557L69.2286 40.6174L85.1743 37.7441L90.1845 39.1808L93.7135 41.7057L94.9334 43.3165L95.4997 44.3613L95.674 44.8837Z" fill="black"/>
<path fill-rule="evenodd" clip-rule="evenodd" d="M8.01638 24.2045C8.01638 24.2045 22.1758 42.6628 38.8621 42.5758C48.7519 42.5322 60.428 39.4849 70.3177 37.7C74.4567 36.9599 78.5084 36.481 81.776 36.481C86.8298 36.4375 94.8026 39.006 95.674 44.8831C95.674 44.8831 91.9707 35.0444 73.1061 40.9215C57.4218 45.8408 44.1338 49.8895 33.7211 46.9727C31.2814 46.2762 29.0594 45.1878 27.0989 43.9253C22.8293 41.1392 19.2132 37.1776 15.6842 33.4337C10.9354 28.2967 7.62427 24.1174 8.01638 24.2045Z" fill="#FF7506"/>
<path fill-rule="evenodd" clip-rule="evenodd" d="M1.78626 112.927C1.78626 112.927 0.784205 106.005 7.10148 98.4302C11.4147 93.2497 19.6053 87.7209 32.1963 84.2382C63.1727 75.6184 103.995 72.3534 117.066 66.4763C130.092 60.5992 141.943 51.5877 147.519 43.2727C153.052 34.9577 152.922 34.6965 153.009 34.6965C153.052 34.6965 148.565 42.6197 138.588 48.1485C134.362 50.4994 128.001 53.2855 122.207 53.9385C102.601 56.1152 91.3173 54.4609 82.6038 56.7682C73.8903 59.0755 70.7535 62.5147 68.7058 66.694C66.6581 70.8297 66.7888 73.1805 66.7888 73.1805C66.7888 73.1805 65.7432 61.3393 78.6827 54.8963C91.6222 48.4533 125.561 47.8873 136.235 42.6632C140.679 40.5301 144.818 38.6146 148.478 35.6108C153.662 31.3444 157.06 25.7286 161.417 16.8476C168.911 1.61076 170 0 170 0C161.635 22.2894 151.658 48.4533 135.059 65.388C115.671 85.1088 85.305 86.9373 64.3926 87.895C43.4803 88.8527 25.6612 90.2023 14.5951 95.7311C3.52895 101.26 1.78626 112.927 1.78626 112.927Z" fill="#FF7506"/>
<path d="M7.10148 113.406H13.2445L19.8667 127.511H13.8109L13.0702 125.639H7.10148L6.4044 127.511H0.479233L7.10148 113.406ZM8.23423 122.679H12.0682L10.1076 117.629L8.23423 122.679ZM22.0015 113.406H28.0574V124.203H36.3352V127.468H21.958V113.406H22.0015ZM37.9472 113.406H54.8513V117.107H49.449V127.511H43.4367V117.107H37.9472V113.406ZM62.6063 113.406H68.7493L75.3716 127.511H69.3593L68.6186 125.639H62.6063L61.9093 127.511H56.0277L62.6063 113.406ZM63.7391 122.679H67.573L65.6125 117.629L63.7391 122.679Z" fill="#231F20" stroke="white" stroke-width="0.109501" stroke-miterlimit="2.6131"/>
<path d="M7.10148 113.406H13.2445L19.8667 127.511H13.8109L13.0702 125.639H7.10148L6.4044 127.511H0.479233L7.10148 113.406ZM8.23423 122.679H12.0682L10.1076 117.629L8.23423 122.679ZM22.0015 113.406H28.0574V124.203H36.3352V127.468H21.958V113.406H22.0015ZM37.9472 113.406H54.8513V117.107H49.449V127.511H43.4367V117.107H37.9472V113.406ZM62.6063 113.406H68.7493L75.3716 127.511H69.3593L68.6186 125.639H62.6063L61.9093 127.511H56.0277L62.6063 113.406ZM63.7391 122.679H67.573L65.6125 117.629L63.7391 122.679Z" fill="white" stroke="black" stroke-width="0.290356"/>
</g>
<defs>
<clipPath id="clip0_31_2475">
<rect width="170" height="136" fill="white"/>
</clipPath>
</defs>
</svg>
