<svg width="16" height="20" viewBox="0 0 16 20" fill="none" xmlns="http://www.w3.org/2000/svg">
<path d="M10 16.6667C10.4602 16.6667 10.8333 16.2936 10.8333 15.8333C10.8333 15.3731 10.4602 15 10 15C9.53976 15 9.16666 15.3731 9.16666 15.8333C9.16666 16.2936 9.53976 16.6667 10 16.6667Z" fill="#A9A9B0" stroke="#A9A9B0" stroke-linecap="round" stroke-linejoin="round"/>
<path d="M10 10.8337C10.4602 10.8337 10.8333 10.4606 10.8333 10.0003C10.8333 9.54009 10.4602 9.16699 10 9.16699C9.53976 9.16699 9.16666 9.54009 9.16666 10.0003C9.16666 10.4606 9.53976 10.8337 10 10.8337Z" fill="#A9A9B0" stroke="#A9A9B0" stroke-linecap="round" stroke-linejoin="round"/>
<path d="M10 4.99967C10.4602 4.99967 10.8333 4.62658 10.8333 4.16634C10.8333 3.7061 10.4602 3.33301 10 3.33301C9.53976 3.33301 9.16666 3.7061 9.16666 4.16634C9.16666 4.62658 9.53976 4.99967 10 4.99967Z" fill="#A9A9B0" stroke="#A9A9B0" stroke-linecap="round" stroke-linejoin="round"/>
</svg>
