<svg width="20" height="20" viewBox="0 0 20 20" fill="none" xmlns="http://www.w3.org/2000/svg">
<path d="M16.1168 12.0753L15.2834 10.692C15.1084 10.3837 14.9501 9.80033 14.9501 9.45866V7.35033C14.9501 5.39199 13.8001 3.70033 12.1418 2.90866C11.7084 2.14199 10.9084 1.66699 9.99178 1.66699C9.08345 1.66699 8.26678 2.15866 7.83345 2.93366C6.20845 3.74199 5.08345 5.41699 5.08345 7.35033V9.45866C5.08345 9.80033 4.92511 10.3837 4.75012 10.6837L3.90845 12.0753C3.57512 12.6337 3.50012 13.2503 3.70845 13.817C3.90845 14.3753 4.38345 14.8087 5.00012 15.017C6.61678 15.567 8.31678 15.8337 10.0168 15.8337C11.7168 15.8337 13.4168 15.567 15.0334 15.0253C15.6168 14.8337 16.0668 14.392 16.2834 13.817C16.5001 13.242 16.4418 12.6087 16.1168 12.0753Z" fill="#FFAC6A"/>
<path d="M12.3582 16.6753C12.0082 17.642 11.0832 18.3337 9.9999 18.3337C9.34157 18.3337 8.69157 18.067 8.23324 17.592C7.96657 17.342 7.76657 17.0087 7.6499 16.667C7.75824 16.6837 7.86657 16.692 7.98324 16.7087C8.1749 16.7337 8.3749 16.7587 8.5749 16.7753C9.0499 16.817 9.53324 16.842 10.0166 16.842C10.4916 16.842 10.9666 16.817 11.4332 16.7753C11.6082 16.7587 11.7832 16.7503 11.9499 16.7253C12.0832 16.7087 12.2166 16.692 12.3582 16.6753Z" fill="#FFAC6A"/>
</svg>
