<svg width="6" height="7" viewBox="0 0 6 7" fill="none" xmlns="http://www.w3.org/2000/svg">
<path fill-rule="evenodd" clip-rule="evenodd" d="M2.80099 6.52148C2.70154 6.52148 2.60615 6.48198 2.53583 6.41165C2.4655 6.34132 2.42599 6.24594 2.42599 6.14648L2.42599 1.80173L0.816494 3.41198C0.781628 3.44685 0.740237 3.47451 0.694682 3.49338C0.649127 3.51225 0.600302 3.52196 0.550994 3.52196C0.501686 3.52196 0.452861 3.51225 0.407306 3.49338C0.361752 3.47451 0.32036 3.44685 0.285494 3.41198C0.250628 3.37712 0.222971 3.33573 0.204102 3.29017C0.185232 3.24462 0.175521 3.19579 0.175521 3.14648C0.175521 3.09718 0.185232 3.04835 0.204102 3.0028C0.222971 2.95724 0.250628 2.91585 0.285494 2.88098L2.53549 0.630984C2.57033 0.596061 2.61171 0.568355 2.65727 0.54945C2.70283 0.530545 2.75167 0.520814 2.80099 0.520814C2.85032 0.520814 2.89916 0.530545 2.94472 0.54945C2.99028 0.568355 3.03166 0.596061 3.06649 0.630984L5.31649 2.88098C5.35136 2.91585 5.37902 2.95724 5.39789 3.0028C5.41676 3.04835 5.42647 3.09718 5.42647 3.14648C5.42647 3.19579 5.41676 3.24462 5.39789 3.29017C5.37902 3.33573 5.35136 3.37712 5.31649 3.41198C5.24608 3.4824 5.15058 3.52196 5.05099 3.52196C5.00169 3.52196 4.95286 3.51225 4.90731 3.49338C4.86175 3.47451 4.82036 3.44685 4.78549 3.41198L3.17599 1.80173L3.17599 6.14648C3.17599 6.24594 3.13649 6.34132 3.06616 6.41165C2.99583 6.48198 2.90045 6.52148 2.80099 6.52148Z" fill="#FF9138"/>
</svg>
