<svg width="16" height="20" viewBox="0 0 16 20" fill="none" xmlns="http://www.w3.org/2000/svg">
<path d="M10 16.6667C10.4603 16.6667 10.8334 16.2936 10.8334 15.8333C10.8334 15.3731 10.4603 15 10 15C9.53978 15 9.16669 15.3731 9.16669 15.8333C9.16669 16.2936 9.53978 16.6667 10 16.6667Z" fill="#FF7506" stroke="#FF7506" stroke-linecap="round" stroke-linejoin="round"/>
<path d="M10 10.8327C10.4603 10.8327 10.8334 10.4596 10.8334 9.99935C10.8334 9.53911 10.4603 9.16602 10 9.16602C9.53978 9.16602 9.16669 9.53911 9.16669 9.99935C9.16669 10.4596 9.53978 10.8327 10 10.8327Z" fill="#FF7506" stroke="#FF7506" stroke-linecap="round" stroke-linejoin="round"/>
<path d="M10 5.00065C10.4603 5.00065 10.8334 4.62755 10.8334 4.16732C10.8334 3.70708 10.4603 3.33398 10 3.33398C9.53978 3.33398 9.16669 3.70708 9.16669 4.16732C9.16669 4.62755 9.53978 5.00065 10 5.00065Z" fill="#FF7506" stroke="#FF7506" stroke-linecap="round" stroke-linejoin="round"/>
</svg>
