<svg width="22" height="20" viewBox="0 0 22 20" fill="none" xmlns="http://www.w3.org/2000/svg">
<circle cx="4.58004" cy="14.4016" r="0.708276" fill="#FF7506"/>
<circle cx="6.94094" cy="14.4016" r="0.708276" fill="#FF7506"/>
<circle cx="9.30184" cy="14.4016" r="0.708276" fill="#FF7506"/>
<g clip-path="url(#clip0_21_7362)">
<path d="M13.0696 5.18945C13.5211 5.18945 13.9316 5.31748 14.2861 5.59915C14.9578 6.14053 15.0548 7.05868 14.4913 7.7098C14.316 7.91465 14.107 8.09755 13.9092 8.28044C13.6629 8.50724 13.4838 8.75232 13.4987 9.1108C13.5099 9.37052 13.2897 9.54245 13.0322 9.53513C12.7897 9.52416 12.6218 9.3376 12.6106 9.07788C12.5882 8.60235 12.7561 8.19997 13.0845 7.85978C13.3084 7.62567 13.5547 7.41716 13.7749 7.17939C14.0771 6.85749 14.01 6.43682 13.6219 6.21369C13.5024 6.14419 13.3569 6.09663 13.2151 6.07834C12.7673 6.02347 12.3643 6.15882 12.1926 6.7258C12.1217 6.96723 11.8717 7.0916 11.6403 7.0221C11.3978 6.9526 11.2709 6.72215 11.3381 6.46975C11.5396 5.68694 12.2075 5.19311 13.0696 5.18945Z" fill="#FF7506"/>
<path d="M13.0731 9.9885C13.3269 9.99581 13.5135 10.1897 13.506 10.4311C13.4985 10.6799 13.2933 10.8628 13.0358 10.8518C12.7895 10.8408 12.6029 10.6433 12.6141 10.4018C12.6216 10.1604 12.8194 9.98118 13.0731 9.9885Z" fill="#FF7506"/>
</g>
<path d="M21 8.18601C21 10.0609 19.9887 11.7464 18.3785 12.9193C18.3228 12.9583 18.2921 13.0251 18.2893 13.092L18.2197 14.9168C18.2113 15.1619 17.9411 15.304 17.7349 15.1731L16.1888 14.2008C16.1888 14.2008 16.1888 14.2008 16.186 14.2008C16.0968 14.1423 15.9882 14.1256 15.8879 14.1562C14.9685 14.4431 13.9684 14.6019 12.9209 14.6019C12.907 14.6019 12.893 14.6019 12.8791 14.6019C12.907 14.4181 12.9209 14.2314 12.9209 14.042C12.9209 11.426 10.252 9.30594 6.95906 9.30594C6.28209 9.30594 5.63297 9.39509 5.02564 9.55946C4.90306 9.1165 4.83899 8.65404 4.83899 8.18044C4.83899 4.63398 8.45509 1.76172 12.9181 1.76172C17.3839 1.76729 21 4.64234 21 8.18601Z" stroke="#FF7506" stroke-width="1.5" stroke-miterlimit="10"/>
<path d="M5.02842 9.56445C2.68547 10.2024 1 11.9687 1 14.047C1 15.4288 1.74662 16.6741 2.93342 17.5405C2.97521 17.5711 2.99749 17.6185 3.00028 17.6686L3.05042 19.0142C3.056 19.1953 3.25658 19.2984 3.40981 19.2037L4.55203 18.4849C4.56038 18.4793 4.57153 18.471 4.57989 18.4654C4.62167 18.432 4.67739 18.4208 4.72754 18.4376C5.41844 18.6604 6.17064 18.783 6.96183 18.783C10.0152 18.783 12.5336 16.9582 12.8819 14.6069" stroke="#FF7506" stroke-width="1.5" stroke-miterlimit="10"/>
<defs>
<clipPath id="clip0_21_7362">
<rect width="3.54138" height="5.66621" fill="white" transform="translate(11.3193 5.18945)"/>
</clipPath>
</defs>
</svg>
