<svg width="20" height="20" viewBox="0 0 20 20" fill="none" xmlns="http://www.w3.org/2000/svg">
<path d="M8.68575 18.0427L8.68298 18.0412L4.1149 15.4083C3.16172 14.7653 2.78255 14.4683 2.5907 14.1379C2.40769 13.8227 2.36664 13.4248 2.36664 12.4077V7.59101C2.36664 6.57241 2.40556 6.17344 2.58446 5.85927C2.77029 5.53294 3.13831 5.24078 4.07392 4.60668L8.67506 1.94898L8.67614 1.94835C9.02132 1.74782 9.4926 1.63477 9.98747 1.63477C10.4823 1.63477 10.9536 1.74782 11.2988 1.94836L11.3004 1.94927L15.8851 4.59045C16.8382 5.23339 17.2174 5.53042 17.4092 5.86083C17.5923 6.17602 17.6333 6.57386 17.6333 7.59101V12.3993C17.6333 13.418 17.5944 13.8169 17.4155 14.1311C17.2297 14.4574 16.8616 14.7496 15.926 15.3837L11.326 18.0407C11.3258 18.0408 11.3256 18.0409 11.3254 18.0411C10.9669 18.2467 10.4907 18.3577 9.99997 18.3577C9.50796 18.3577 9.03356 18.2462 8.68575 18.0427ZM4.23304 4.81649L4.218 4.82518L4.20361 4.83489L4.18749 4.84578C3.86161 5.06569 3.59373 5.24646 3.38773 5.40949C3.17513 5.57775 2.99252 5.75412 2.86226 5.97867C2.72899 6.20842 2.67392 6.44778 2.64862 6.70368C2.62495 6.94316 2.62496 7.23136 2.62497 7.56793L2.62497 7.59101V12.3993L2.62497 12.4228C2.62496 12.759 2.62495 13.0478 2.64925 13.2882C2.6753 13.5458 2.732 13.7862 2.86792 14.0174C3.00028 14.2425 3.18558 14.4205 3.40203 14.5916C3.61234 14.7578 3.8861 14.9431 4.22052 15.1694L4.23643 15.1801L4.25127 15.1902L4.26678 15.1991L8.81678 17.8241L8.81699 17.8242C9.16294 18.0236 9.60361 18.1035 10.0041 18.1035C10.4047 18.1035 10.8453 18.0236 11.1913 17.8242L11.1919 17.8239L15.7752 15.1739L15.7909 15.1648L15.8058 15.1547L15.822 15.1437C16.1458 14.9239 16.4121 14.743 16.6169 14.5799C16.8284 14.4115 17.01 14.235 17.1394 14.0105C17.2717 13.781 17.3264 13.542 17.3515 13.2864C17.375 13.0471 17.375 12.759 17.375 12.4223V12.3993V7.59101V7.56758C17.375 7.23131 17.375 6.94261 17.3507 6.70218C17.3246 6.44454 17.2679 6.20414 17.132 5.97299C16.9997 5.7479 16.8144 5.56984 16.5979 5.39875C16.3876 5.23251 16.1138 5.04727 15.7794 4.82097L15.7635 4.81024L15.7487 4.8002L15.7332 4.79126L11.1862 2.168C11.1856 2.16769 11.1851 2.16738 11.1846 2.16707C10.8381 1.96455 10.3984 1.89102 9.99997 1.89102C9.60153 1.89102 9.16167 1.96457 8.8152 2.16717L4.23304 4.81649Z" stroke="#FF7506"/>
<path d="M10 12.625C8.55114 12.625 7.375 11.4489 7.375 10C7.375 8.55114 8.55114 7.375 10 7.375C11.4489 7.375 12.625 8.55114 12.625 10C12.625 11.4489 11.4489 12.625 10 12.625ZM10 7.625C8.69052 7.625 7.625 8.69052 7.625 10C7.625 11.3095 8.69052 12.375 10 12.375C11.3095 12.375 12.375 11.3095 12.375 10C12.375 8.69052 11.3095 7.625 10 7.625Z" fill="#292D32" stroke="#FF7506"/>
</svg>
